<svg xmlns="http://www.w3.org/2000/svg" xmlns:xlink="http://www.w3.org/1999/xlink" viewBox="0 0 251.02 125.48"><defs><style>.cls-1{isolation:isolate;}.cls-2{fill:url(#linear-gradient);}.cls-3{fill:url(#linear-gradient-2);}.cls-4{fill:url(#linear-gradient-3);}.cls-14,.cls-5{opacity:0.3;}.cls-11,.cls-14,.cls-15,.cls-5,.cls-6,.cls-8{mix-blend-mode:multiply;}.cls-5{fill:url(#linear-gradient-4);}.cls-15,.cls-6{opacity:0.2;}.cls-6{fill:url(#linear-gradient-5);}.cls-7{fill:url(#linear-gradient-6);}.cls-11,.cls-8{opacity:0.4;}.cls-8{fill:url(#linear-gradient-7);}.cls-12,.cls-9{opacity:0.5;mix-blend-mode:screen;}.cls-9{fill:url(#linear-gradient-8);}.cls-10{fill:url(#Degradado_sin_nombre_109);}.cls-11{fill:url(#linear-gradient-9);}.cls-12{fill:url(#linear-gradient-10);}.cls-13{fill:url(#linear-gradient-11);}.cls-14{fill:url(#linear-gradient-12);}.cls-15{fill:url(#linear-gradient-13);}</style><linearGradient id="linear-gradient" x1="10.92" y1="52.21" x2="74.68" y2="-11.54" gradientUnits="userSpaceOnUse"><stop offset="0" stop-color="#e11e79"/><stop offset="1" stop-color="#662d80"/></linearGradient><linearGradient id="linear-gradient-2" x1="374.23" y1="219.21" x2="437.74" y2="155.7" gradientTransform="matrix(-1, 0, 0, 1, 614.55, -167.21)" xlink:href="#linear-gradient"/><linearGradient id="linear-gradient-3" x1="530.42" y1="143.95" x2="430.99" y2="243.38" gradientTransform="matrix(1, 0, 0, -1, -422.89, 276.79)" xlink:href="#linear-gradient"/><linearGradient id="linear-gradient-4" x1="466.51" y1="250.6" x2="581.7" y2="250.6" gradientTransform="translate(-466.28 -167.21)" xlink:href="#linear-gradient"/><linearGradient id="linear-gradient-5" x1="515.46" y1="250.08" x2="581.7" y2="250.08" gradientTransform="translate(-466.28 -167.21)" xlink:href="#linear-gradient"/><linearGradient id="linear-gradient-6" x1="240.26" y1="248.21" x2="202.4" y2="210.35" gradientTransform="matrix(-1, 0, 0, 1, 332.2, -167.21)" gradientUnits="userSpaceOnUse"><stop offset="0" stop-color="#e00080"/><stop offset="1" stop-color="#f06767"/></linearGradient><linearGradient id="linear-gradient-7" x1="35.82" y1="62.44" x2="184.97" y2="62.44" gradientTransform="matrix(1, 0, 0, 1, 0, 0)" xlink:href="#linear-gradient-6"/><linearGradient id="linear-gradient-8" x1="86.67" y1="62.48" x2="184.97" y2="62.48" gradientTransform="matrix(1, 0, 0, 1, 0, 0)" xlink:href="#linear-gradient-6"/><linearGradient id="Degradado_sin_nombre_109" x1="324.51" y1="248.21" x2="286.66" y2="210.35" gradientTransform="translate(-164.5 -167.21)" gradientUnits="userSpaceOnUse"><stop offset="0" stop-color="#f70c5b"/><stop offset="1" stop-color="#ff4a24"/></linearGradient><linearGradient id="linear-gradient-9" x1="75.66" y1="229.66" x2="224.82" y2="229.66" gradientTransform="matrix(-1, 0, 0, 1, 291.81, -167.21)" xlink:href="#linear-gradient-6"/><linearGradient id="linear-gradient-10" x1="126.52" y1="229.69" x2="224.82" y2="229.69" gradientTransform="matrix(-1, 0, 0, 1, 291.81, -167.21)" xlink:href="#linear-gradient-6"/><linearGradient id="linear-gradient-11" x1="396.3" y1="143.95" x2="296.87" y2="243.38" gradientTransform="translate(540 276.79) rotate(180)" xlink:href="#linear-gradient"/><linearGradient id="linear-gradient-12" x1="332.38" y1="250.6" x2="447.58" y2="250.6" gradientTransform="matrix(-1, 0, 0, 1, 583.4, -167.21)" xlink:href="#linear-gradient"/><linearGradient id="linear-gradient-13" x1="381.33" y1="250.08" x2="447.58" y2="250.08" gradientTransform="matrix(-1, 0, 0, 1, 583.4, -167.21)" xlink:href="#linear-gradient"/></defs><g class="cls-1"><g id="Objects"><polygon class="cls-2" points="0 41.29 35.81 0 86.22 0 49.17 41.29 0 41.29"/><polygon class="cls-3" points="251.02 41.29 215.89 0 165.29 0 202.05 41.29 251.02 41.29"/><polygon class="cls-4" points="49.17 41.29 115.42 124.96 66.47 124.96 0.23 41.29 49.17 41.29"/><polygon class="cls-5" points="0.23 41.29 115.42 125.48 49.17 41.29 0.23 41.29"/><polygon class="cls-6" points="66.47 124.96 49.17 40.77 115.42 124.96 66.47 124.96"/><polygon class="cls-7" points="86.67 0 184.97 124.83 135.83 124.88 36.07 0 86.67 0"/><polygon class="cls-8" points="35.81 0 184.97 124.69 135.83 124.88 35.81 0"/><polygon class="cls-9" points="86.67 0 136.41 124.96 184.97 124.69 86.67 0"/><polygon class="cls-10" points="165.29 0 66.99 124.83 116.13 124.88 215.89 0 165.29 0"/><polygon class="cls-11" points="216.14 0 66.99 124.69 116.13 124.88 216.14 0"/><polygon class="cls-12" points="165.29 0 115.55 124.96 66.99 124.69 165.29 0"/><polygon class="cls-13" points="202.07 41.29 135.82 124.96 184.76 124.96 251.01 41.29 202.07 41.29"/><polygon class="cls-14" points="251.01 41.29 135.82 125.48 202.07 41.29 251.01 41.29"/><polygon class="cls-15" points="184.76 124.96 202.07 40.77 135.82 124.96 184.76 124.96"/></g></g></svg>